<mxfile host="65bd71144e">
    <diagram id="JxOv7gvPb8EnoPg9ADsf" name="Page-1">
        <mxGraphModel dx="1118" dy="782" grid="1" gridSize="10" guides="1" tooltips="1" connect="1" arrows="1" fold="1" page="1" pageScale="1" pageWidth="850" pageHeight="1100" math="0" shadow="0">
            <root>
                <mxCell id="0"/>
                <mxCell id="1" parent="0"/>
                <mxCell id="4" value="Unit" style="ellipse;shape=cloud;whiteSpace=wrap;html=1;" vertex="1" parent="1">
                    <mxGeometry x="170" y="160" width="120" height="80" as="geometry"/>
                </mxCell>
                <mxCell id="5" value="Doctor" style="ellipse;shape=cloud;whiteSpace=wrap;html=1;" vertex="1" parent="1">
                    <mxGeometry x="425" y="140" width="120" height="80" as="geometry"/>
                </mxCell>
                <mxCell id="6" value="Intervention" style="ellipse;shape=cloud;whiteSpace=wrap;html=1;" vertex="1" parent="1">
                    <mxGeometry x="425" y="320" width="120" height="80" as="geometry"/>
                </mxCell>
                <mxCell id="7" value="Patient" style="shape=umlActor;verticalLabelPosition=bottom;verticalAlign=top;html=1;outlineConnect=0;" vertex="1" parent="1">
                    <mxGeometry x="130" y="430" width="30" height="60" as="geometry"/>
                </mxCell>
            </root>
        </mxGraphModel>
    </diagram>
</mxfile>